<svg xmlns="http://www.w3.org/2000/svg" viewBox="0 0 58.4 58.4"><defs><style>.cls-1{fill:#821718;}</style></defs><title>instagram_2</title><g id="Layer_2" data-name="Layer 2"><g id="Layer_1-2" data-name="Layer 1"><path class="cls-1" d="M36.7,15.7h-15a6,6,0,0,0-6,6v15a6,6,0,0,0,6,6h15a6,6,0,0,0,6-6v-15A6,6,0,0,0,36.7,15.7ZM30.4,36.5a4.1,4.1,0,0,1-1.1.1,7.49,7.49,0,0,1-1.1-14.9,8.1,8.1,0,0,1,2.2,0A7.42,7.42,0,0,1,36.7,28h0A7.47,7.47,0,0,1,30.4,36.5Zm8.5-15.3a.37.37,0,0,1-.1.3c0,.1-.1.2-.1.3a.22.22,0,0,1-.2.2c-.1.1-.2.1-.2.2a.37.37,0,0,1-.3.1c-.1,0-.2.1-.3.1h-.6a.37.37,0,0,1-.3-.1.37.37,0,0,0-.3-.1.22.22,0,0,1-.2-.2,1.5,1.5,0,0,1-.4-1.1v-.3a.37.37,0,0,1,.1-.3c0-.1.1-.2.1-.3a.22.22,0,0,1,.2-.2,1.66,1.66,0,0,1,2.1,0l.2.2a.37.37,0,0,1,.1.3c0,.1.1.2.1.3v.3A.37.37,0,0,1,38.9,21.2Z"/><path class="cls-1" d="M29.9,24.7H28.5a4.49,4.49,0,0,0-3.8,5.1,4.56,4.56,0,0,0,5.1,3.8,4.49,4.49,0,0,0,3.8-5.1A4.25,4.25,0,0,0,29.9,24.7Z"/><path class="cls-1" d="M29.2,0A29.2,29.2,0,1,0,58.4,29.2,29.23,29.23,0,0,0,29.2,0ZM45.7,36.7a9,9,0,0,1-9,9h-15a9,9,0,0,1-9-9v-15a9,9,0,0,1,9-9h15a9,9,0,0,1,9,9Z"/></g></g></svg>