<svg xmlns="http://www.w3.org/2000/svg" viewBox="0 0 58.4 58.4"><defs><style>.cls-1{fill:#821718;}</style></defs><g id="Layer_2" data-name="Layer 2"><g id="Layer_1-2" data-name="Layer 1"><polygon class="cls-1" points="25.3 34.9 35.3 29.2 25.3 23.5 25.3 34.9"/><path class="cls-1" d="M29.2,0A29.2,29.2,0,1,0,58.4,29.2,29.23,29.23,0,0,0,29.2,0ZM47.6,38.5a4.86,4.86,0,0,1-3.4,3.4c-3,.8-15,.8-15,.8s-12,0-15-.8a4.69,4.69,0,0,1-3.4-3.4c-.8-3-.8-9.3-.8-9.3s0-6.3.8-9.3a4.54,4.54,0,0,1,3.4-3.4c3-.8,15-.8,15-.8s12,0,15,.8a4.86,4.86,0,0,1,3.4,3.4h0c.8,3,.8,9.3.8,9.3S48.4,35.5,47.6,38.5Z"/></g></g></svg>